<!--<svg xmlns="http://www.w3.org/2000/svg" viewBox="0 0 586 322.16"><defs>
<style>
	.cls-1{fill:#39a2c9;}.cls-1{fill-rule:evenodd;}
	.cls-2{fill:#ed1b23;}
	.cls-3{fill:#00a550}
	.cls-4{fill:#2e3092;}
	.cls-2, .cls-3, .cls-4{font-size:230.6px;font-family:Tahoma-Bold, Tahoma;font-weight:700;}
</style></defs><title>svg</title>
<g id="Layer_2" data-name="Layer 2"><g id="Layer_1-2" data-name="Layer 1">
<polygon class="cls-1" points="586 135.3 584.03 138.72 508.69 269.22 504.68 269.22 582.03 135.26 503.92 0 507.89 0 584 131.85 586 135.3"/>
<polygon class="cls-1" points="0 135.3 1.97 138.72 77.31 269.22 81.32 269.22 3.97 135.26 82.08 0 78.11 0 2 131.85 0 135.3"/>
<text class="cls-2" transform="translate(54.94 225.55)">H</text>
<text class="cls-3" transform="translate(230.5 225.55)">T</text>
<text class="cls-4" transform="translate(370.55 225.55)">D</text>
</g>
</g>
</svg>-->




<svg width="586" height="322.16" xmlns="http://www.w3.org/2000/svg" viewBox="0 0 586 322.16">
 <defs>
  <style>.cls-1{fill:#39a2c9;}.cls-1{fill-rule:evenodd;}
	.cls-2{fill:#ed1b23;}
	.cls-3{fill:#00a550}
	.cls-4{fill:#2e3092;}
	.cls-2, .cls-3, .cls-4{font-size:230.6px;font-family:Tahoma-Bold, Tahoma;font-weight:700;}</style>
 </defs>
 <title>svg</title>
 <g class="currentLayer">
  <title>Layer 1</title>
  <g class="selected" id="Layer_2">
   <g id="Layer_1-2">
    <polygon opacity="0" id="svg_1" points="522.02001953125,161.77000629901886 520.050048828125,165.19000446796417 444.7099609375,295.6899892091751 440.6999816894531,295.6899892091751 518.050048828125,161.72999775409698 439.9400329589844,26.46999943256378 443.9100341796875,26.46999943256378 520.02001953125,158.32000935077667 522.02001953125,161.77000629901886 " class="cls-1"/>
    <polygon opacity="0" id="svg_2" points="51.97999572753906,161.77377319335938 53.94999694824219,165.1937713623047 129.2899932861328,295.6936950683594 133.3000030517578,295.6936950683594 55.94999694824219,161.7337646484375 134.05999755859375,26.473764419555664 130.08999633789062,26.473764419555664 53.97999572753906,158.3237762451172 51.97999572753906,161.77377319335938 " class="cls-1"/>
    <text id="svg_3" x="93.919994" y="252.582815" class="cls-2">H</text>
    <text id="svg_4" x="222.479996" y="252.582815" class="cls-3">T</text>
    <text id="svg_5" x="316.529984" y="252.582815" class="cls-4">D</text>
   </g>
  </g>
 </g>
 <g>
  <title>Layer 2</title>
  <rect fill="none" y="0" x="0" height="100%" width="100%" id="backgroundrect"/>
 </g>
 <g>
  <title>background</title>
  <rect fill="none" id="canvas_background" height="402" width="582" y="-1" x="-1"/>
 </g>
</svg>